HIERARCHY
ROOT Hips
{
	OFFSET 0.000000 0.000000 0.000000
	CHANNELS 6 Xposition Yposition Zposition Xrotation Yrotation Zrotation
	JOINT LeftUpLeg_virtual
	{
		OFFSET 0.000000 0.000000 0.000000
		CHANNELS 3 Xrotation Yrotation Zrotation
		JOINT LeftUpLeg
		{
			OFFSET 15.427100 -6.655098 0.678600
			CHANNELS 3 Xrotation Yrotation Zrotation
			JOINT LeftLeg
			{
				OFFSET 4.081073 -39.591068 13.024000
				CHANNELS 3 Xrotation Yrotation Zrotation
				JOINT LeftFoot
				{
					OFFSET -4.081074 -37.707932 -15.979700
					CHANNELS 3 Xrotation Yrotation Zrotation
					JOINT LeftToeBase
					{
						OFFSET 5.346399 -15.068900 20.645000
						CHANNELS 3 Xrotation Yrotation Zrotation
						JOINT LeftToe_End
						{
							OFFSET 2.754700 0.931300 11.300900
							CHANNELS 3 Xrotation Yrotation Zrotation
							End Site
							{
								OFFSET 0 0 0
							}
						}
					}
				}
			}
		}
	}
	JOINT RightUpLeg_virtual
	{
		OFFSET 0.000000 0.000000 0.000000
		CHANNELS 3 Xrotation Yrotation Zrotation
		JOINT RightUpLeg
		{
			OFFSET -15.569500 -6.655098 0.678600
			CHANNELS 3 Xrotation Yrotation Zrotation
			JOINT RightLeg
			{
				OFFSET -4.081825 -39.591045 13.023800
				CHANNELS 3 Xrotation Yrotation Zrotation
				JOINT RightFoot
				{
					OFFSET 4.081824 -37.707954 -15.979600
					CHANNELS 3 Xrotation Yrotation Zrotation
					JOINT RightToeBase
					{
						OFFSET -5.346400 -15.068900 20.645000
						CHANNELS 3 Xrotation Yrotation Zrotation
						JOINT RightToe_End
						{
							OFFSET -2.754700 0.931300 11.300900
							CHANNELS 3 Xrotation Yrotation Zrotation
							End Site
							{
								OFFSET 0 0 0
							}
						}
					}
				}
			}
		}
	}
	JOINT Spine_virtual
	{
		OFFSET 0.000000 0.000000 0.000000
		CHANNELS 3 Xrotation Yrotation Zrotation
		JOINT Spine
		{
			OFFSET -0.279200 12.230698 -2.892100
			CHANNELS 3 Xrotation Yrotation Zrotation
			JOINT Spine1
			{
				OFFSET -0.232667 10.192268 -1.242267
				CHANNELS 3 Xrotation Yrotation Zrotation
				JOINT Spine1_split
				{
					OFFSET -0.232667 10.192268 -1.242267
					CHANNELS 3 Xrotation Yrotation Zrotation
					JOINT Spine2
					{
						OFFSET -0.232667 10.192268 -1.242267
						CHANNELS 3 Xrotation Yrotation Zrotation
						JOINT Neck_virtual
						{
							OFFSET 0.000000 0.000000 0.000000
							CHANNELS 3 Xrotation Yrotation Zrotation
							JOINT Neck
							{
								OFFSET -0.418800 17.814194 8.416900
								CHANNELS 3 Xrotation Yrotation Zrotation
								JOINT Head
								{
									OFFSET 0.000000 7.031097 3.806800
									CHANNELS 3 Xrotation Yrotation Zrotation
									JOINT HeadTop_End
									{
										OFFSET 0.000000 24.646606 12.978600
										CHANNELS 3 Xrotation Yrotation Zrotation
										End Site
										{
											OFFSET 0 0 0
										}
									}
								}
							}
						}
						JOINT LeftShoulder_virtual
						{
							OFFSET 0.000000 0.000000 0.000000
							CHANNELS 3 Xrotation Yrotation Zrotation
							JOINT LeftShoulder
							{
								OFFSET 8.476499 7.247704 -3.868750
								CHANNELS 3 Xrotation Yrotation Zrotation
								JOINT LeftShoulder_split
								{
									OFFSET 8.476499 7.247704 -3.868750
									CHANNELS 3 Xrotation Yrotation Zrotation
									JOINT LeftArm
									{
										OFFSET 9.308998 -2.777710 0.208600
										CHANNELS 3 Xrotation Yrotation Zrotation
										JOINT LeftForeArm
										{
											OFFSET 29.972298 0.000000 0.000000
											CHANNELS 3 Xrotation Yrotation Zrotation
											JOINT LeftHand
											{
												OFFSET 26.026505 0.000000 0.000000
												CHANNELS 3 Xrotation Yrotation Zrotation
												End Site
												{
													OFFSET 0 0 0
												}
											}
										}
									}
								}
							}
						}
						JOINT RightShoulder_virtual
						{
							OFFSET 0.000000 0.000000 0.000000
							CHANNELS 3 Xrotation Yrotation Zrotation
							JOINT RightShoulder
							{
								OFFSET -7.570500 7.247704 -3.868750
								CHANNELS 3 Xrotation Yrotation Zrotation
								JOINT RightShoulder_split
								{
									OFFSET -7.570500 7.247704 -3.868750
									CHANNELS 3 Xrotation Yrotation Zrotation
									JOINT RightArm
									{
										OFFSET -9.308998 -2.777710 0.208500
										CHANNELS 3 Xrotation Yrotation Zrotation
										JOINT RightForeArm
										{
											OFFSET -29.972300 0.000000 0.000000
											CHANNELS 3 Xrotation Yrotation Zrotation
											JOINT RightHand
											{
												OFFSET -26.026505 0.000000 0.000000
												CHANNELS 3 Xrotation Yrotation Zrotation
												End Site
												{
													OFFSET 0 0 0
												}
											}
										}
									}
								}
							}
						}
					}
				}
			}
		}
	}
}
MOTION
Frames: 10
Frame Time: 0.03333333
11.389531 68.351997 57.012669 0.000000 0.000000 0.000000 -18.834322 -49.690528 -11.037418 -40.171734 -6.311978 32.058541 57.262660 -4.658866 4.476955 -11.367058 -10.920579 -28.448669 -3.802869 -0.026521 2.084501 0.000000 0.000000 0.000000 -19.579460 -43.076719 -9.388927 -27.841784 7.344251 -46.505894 78.590663 5.319181 -12.174069 -3.941363 -5.440388 21.133328 -17.136031 0.308823 6.154907 0.000000 0.000000 0.000000 -17.426847 -41.768007 -10.673164 25.966829 3.463801 -10.595782 -0.566740 1.240745 0.214569 1.275327 -1.177309 1.347009 0.000000 0.000000 0.000000 0.346159 0.924587 0.716923 0.705231 14.917309 0.761747 1.175842 23.095069 -5.648560 0.000000 0.000000 0.000000 0.236858 1.149172 0.814735 0.850160 1.786653 -8.058148 -0.028553 -3.694263 1.960854 -59.389478 4.480776 -44.305241 -175.780219 -66.431315 -173.843846 0.000000 0.000000 0.000000 0.258630 0.545346 0.334547 2.531967 11.142147 -4.653259 -6.329589 -1.264003 3.597400 -46.155403 21.653832 87.529072 -175.386117 64.035284 173.232804 0.000000 0.000000 0.000000 
10.003942 69.196785 53.387012 0.000000 0.000000 0.000000 -17.445278 -50.066823 -8.481525 -36.920564 -5.228771 31.990393 50.201358 -5.496969 4.320428 -8.004126 -10.975003 -30.659319 -3.772194 0.055477 1.501818 0.000000 0.000000 0.000000 -19.607755 -43.061576 -7.459055 -26.207450 5.552226 -47.129149 77.190509 6.737050 -11.145541 -10.499960 -8.084045 24.740496 -14.131921 0.797443 4.116094 0.000000 0.000000 0.000000 -18.607298 -42.898280 -9.732881 24.639971 4.719406 -9.759043 0.052252 1.355822 -0.469898 0.581961 -0.446735 1.506882 0.000000 0.000000 0.000000 0.693691 1.031097 0.017073 1.260536 14.601532 0.634780 3.271779 22.755113 -6.116822 0.000000 0.000000 0.000000 0.833841 1.275807 0.132026 0.759714 2.697325 -7.751390 -0.120961 -5.194528 2.147794 -58.051055 4.688343 -45.424323 -176.733590 -64.597621 -174.510186 0.000000 0.000000 0.000000 0.799665 0.640223 -0.361092 2.335838 11.853177 -4.582233 -5.973281 -0.357586 2.765081 -47.376904 19.574023 87.944471 -174.224643 66.581381 172.363348 0.000000 0.000000 0.000000 
8.627863 70.398460 49.514935 0.000000 0.000000 0.000000 -14.742410 -49.292017 -5.255600 -34.785283 -4.059225 31.583010 43.074407 -5.828874 3.876681 -5.158538 -11.228215 -31.457140 -3.956912 0.073519 0.979388 0.000000 0.000000 0.000000 -18.155691 -42.365635 -4.910611 -23.604956 2.828049 -46.728391 74.588282 6.960444 -9.278696 -18.563018 -11.663874 24.228462 -8.331279 1.167809 2.843855 0.000000 0.000000 0.000000 -18.315644 -43.438367 -7.900044 23.300499 5.825654 -9.026265 0.633648 1.387484 -1.156494 -0.137428 0.479132 1.638368 0.000000 0.000000 0.000000 0.961153 1.093750 -0.708882 1.760472 14.046359 0.596513 4.579789 21.758215 -6.039904 0.000000 0.000000 0.000000 1.358013 1.333488 -0.543935 0.718499 3.220184 -7.329553 -0.450388 -5.900790 1.761420 -57.427035 3.916308 -46.199984 -178.089164 -63.043042 -175.689841 0.000000 0.000000 0.000000 1.296948 0.704815 -1.057105 2.239906 12.767226 -5.034669 -4.887015 1.119648 2.057369 -48.497065 17.739487 87.735180 -173.482461 67.491681 171.759068 0.000000 0.000000 0.000000 
7.427202 71.702858 45.542065 0.000000 0.000000 0.000000 -11.938955 -48.155156 -2.556576 -34.068365 -2.899592 30.933206 38.226212 -5.805397 3.444519 -3.618035 -11.523117 -30.932776 -4.548567 0.006539 0.656376 0.000000 0.000000 0.000000 -16.043334 -41.596176 -2.675385 -21.186675 -0.395907 -45.131004 71.163256 6.163589 -6.649595 -25.522455 -14.735918 20.634860 -2.519024 1.391713 2.181386 0.000000 0.000000 0.000000 -16.958976 -43.840590 -5.822584 22.002293 6.671330 -8.370189 1.141283 1.322867 -1.638237 -0.226625 1.544424 1.558770 0.000000 0.000000 0.000000 1.117008 1.089363 -1.228919 2.147357 13.412512 0.392129 4.942994 20.456319 -5.670450 0.000000 0.000000 0.000000 1.737939 1.291487 -1.026784 0.725434 3.322986 -6.963757 -1.010219 -5.485833 0.969848 -57.521224 2.961567 -46.431305 -179.649767 -62.377044 -177.223724 0.000000 0.000000 0.000000 1.702658 0.740344 -1.521731 2.255167 13.618605 -6.068028 -3.515893 2.229736 1.809761 -49.899077 16.373809 86.700932 -173.683774 66.302593 171.989532 0.000000 0.000000 0.000000 
6.574727 73.021637 41.620617 0.000000 0.000000 0.000000 -9.554792 -47.428420 -0.852055 -34.838404 -1.824280 30.099325 37.564432 -5.981937 3.138539 -3.508898 -11.917066 -29.841260 -5.332515 -0.112278 0.855748 0.000000 0.000000 0.000000 -13.755207 -41.297024 -1.222611 -20.094999 -3.337147 -42.621480 66.922685 5.331836 -3.768794 -28.710031 -16.214493 17.653239 -0.158907 1.489395 1.783438 0.000000 0.000000 0.000000 -14.659883 -44.292588 -3.864365 20.776278 7.233103 -7.755097 1.535747 1.179959 -1.777363 -0.000793 2.095053 1.397780 0.000000 0.000000 0.000000 1.169219 1.028091 -1.383708 2.356556 13.000760 -0.123243 4.422745 19.255008 -5.335582 0.000000 0.000000 0.000000 1.971011 1.147677 -1.184981 0.749470 3.064206 -6.794527 -1.803818 -4.277035 -0.217945 -58.369554 2.393827 -46.103886 178.789873 -62.928240 -178.924223 0.000000 0.000000 0.000000 1.958785 0.717053 -1.600800 2.332720 14.250268 -7.233399 -2.551068 2.481809 2.052147 -51.536557 15.472597 85.109430 -174.725542 63.781754 173.023377 0.000000 0.000000 0.000000 
6.060879 74.409103 37.876343 0.000000 0.000000 0.000000 -7.956297 -47.308329 -0.300355 -36.604534 -0.423768 28.854438 41.075409 -6.118196 2.942474 -4.976603 -12.204962 -28.090738 -5.942011 -0.238623 1.469973 0.000000 0.000000 0.000000 -11.439509 -42.054482 -0.678886 -20.803151 -5.852554 -39.355239 61.977744 4.893106 -0.992391 -27.582906 -16.093268 17.061872 -1.786821 1.474672 1.424850 0.000000 0.000000 0.000000 -11.861511 -45.051316 -2.474135 19.632305 7.521524 -7.202872 1.781881 1.017941 -1.573999 0.452421 2.076500 1.001636 0.000000 0.000000 0.000000 1.158346 0.943258 -1.156699 2.439935 12.868292 -0.965710 3.239590 18.397927 -5.240992 0.000000 0.000000 0.000000 2.061823 0.959957 -1.018930 0.773599 2.523634 -6.840175 -2.584003 -2.759209 -1.283665 -59.857387 2.351639 -45.450305 177.370177 -64.357212 179.360795 0.000000 0.000000 0.000000 2.071126 0.663347 -1.289933 2.442611 14.576594 -8.208927 -1.983051 1.711758 2.509911 -53.021382 15.220033 83.480676 -175.900976 61.378983 174.210627 0.000000 0.000000 0.000000 
5.914805 75.994995 34.442894 0.000000 0.000000 0.000000 -6.689279 -47.924514 -0.639074 -38.308257 1.583926 26.955103 47.071181 -5.502789 2.751983 -7.983386 -12.029786 -24.899463 -6.317704 -0.410147 2.315158 0.000000 0.000000 0.000000 -9.309994 -43.948381 -0.930628 -22.723114 -8.496370 -35.587987 56.660504 4.527265 1.584761 -23.999700 -14.773119 17.625873 -4.340292 1.451960 1.029938 0.000000 0.000000 0.000000 -8.670561 -46.244557 -1.686958 18.574606 7.594089 -6.733655 1.852595 0.917105 -1.156817 0.999274 1.667796 0.567335 0.000000 0.000000 0.000000 1.119656 0.878822 -0.683323 2.472624 13.018534 -2.004214 1.809938 17.955585 -5.476345 0.000000 0.000000 0.000000 2.027716 0.802891 -0.657956 0.755719 1.922430 -6.985501 -3.153309 -1.583809 -1.662899 -61.784211 2.836510 -44.591928 176.423035 -65.995549 178.013431 0.000000 0.000000 0.000000 2.076469 0.637019 -0.737536 2.595220 14.649678 -8.767702 -1.841544 0.464412 2.966830 -54.156836 15.541827 82.277217 -176.884660 60.091048 175.227205 0.000000 0.000000 0.000000 
6.042300 77.801743 31.171011 0.000000 0.000000 0.000000 -5.326973 -48.909567 -1.321732 -39.129621 4.003806 24.550777 53.249555 -4.321540 2.461518 -11.784040 -11.535168 -20.808214 -6.983054 -0.591653 3.215302 0.000000 0.000000 0.000000 -7.057050 -46.579476 -1.407850 -25.015290 -11.277597 -31.662329 51.331938 3.819058 3.897100 -20.412369 -12.893717 17.746542 -4.542951 1.485417 0.661589 0.000000 0.000000 0.000000 -5.275222 -47.817687 -1.306259 17.534084 7.526200 -6.344911 1.739126 0.902930 -0.700229 1.175887 0.963367 0.338330 0.000000 0.000000 0.000000 1.072377 0.870361 -0.157129 2.532315 13.385287 -2.974227 0.565465 17.950425 -5.938292 0.000000 0.000000 0.000000 1.883913 0.723714 -0.259871 0.682583 1.422574 -7.054849 -3.337512 -0.928057 -1.562661 -64.233954 3.423779 -43.689343 176.256296 -67.391018 177.391952 0.000000 0.000000 0.000000 1.979655 0.654192 -0.162315 2.764543 14.567786 -8.857440 -1.950252 -0.558937 3.151911 -55.138498 16.484674 81.929144 -177.566668 60.059165 175.991217 0.000000 0.000000 0.000000 
6.223825 79.706085 28.238117 0.000000 0.000000 0.000000 -3.615452 -50.253592 -1.869451 -38.369715 6.628269 21.894940 57.302883 -2.874606 2.115135 -15.528589 -10.904861 -16.619558 -8.571851 -0.798558 3.861416 0.000000 0.000000 0.000000 -4.894103 -49.523543 -1.842389 -26.976035 -13.861471 -28.328845 47.270008 2.669329 5.595331 -17.669269 -11.337860 16.833469 -2.824771 1.558982 0.439759 0.000000 0.000000 0.000000 -1.944626 -49.653378 -1.062410 16.450256 7.396750 -6.097785 1.475439 0.966246 -0.359523 1.323273 0.270043 0.221648 0.000000 0.000000 0.000000 1.035025 0.914150 0.256038 2.645027 13.782079 -3.628630 -0.141361 18.240124 -6.476971 0.000000 0.000000 0.000000 1.687857 0.752536 0.038496 0.587853 1.110302 -6.926786 -3.156792 -0.545794 -0.971823 -66.830457 3.814775 -42.886826 176.910328 -68.475959 177.605286 0.000000 0.000000 0.000000 1.827582 0.729147 0.260461 2.957661 14.378967 -8.759131 -1.999415 -0.989114 3.018301 -56.195118 17.969102 82.429107 -177.812787 61.118828 176.363940 0.000000 0.000000 0.000000 
6.440086 81.465675 25.528555 0.000000 0.000000 0.000000 -1.538213 -52.022792 -1.915179 -35.842043 9.135764 19.315529 58.243858 -1.277066 1.679226 -18.878677 -9.997506 -12.366496 -11.037563 -1.024082 4.055800 0.000000 0.000000 0.000000 -2.972525 -52.537982 -2.010851 -28.276920 -15.603460 -26.349755 45.370187 1.301961 6.338286 -14.870157 -10.773569 15.886935 -1.330367 1.615363 0.404941 0.000000 0.000000 0.000000 1.028701 -51.396941 -0.667370 15.350203 7.252122 -6.008678 1.102087 1.051444 -0.170013 1.219572 -0.167340 0.345699 0.000000 0.000000 0.000000 0.958287 0.971015 0.487018 2.758371 14.147327 -3.804287 -0.171533 18.745219 -6.931312 0.000000 0.000000 0.000000 1.482068 0.819961 0.189740 0.496462 1.019111 -6.541664 -2.833485 -0.307356 -0.430994 -69.209132 3.830944 -42.255430 178.119039 -69.634844 178.421057 0.000000 0.000000 0.000000 1.656512 0.826202 0.468785 3.148041 14.119860 -8.602959 -1.951850 -0.957556 2.645067 -57.601212 19.566062 83.389834 -177.626186 62.871386 176.338204 0.000000 0.000000 0.000000 
